<svg width="95" height="27" viewBox="0 0 95 27" fill="none" xmlns="http://www.w3.org/2000/svg">
<g clip-path="url(#clip0)">
<path d="M6.072 21C4.84 21 3.904 20.688 3.264 20.064C2.64 19.44 2.328 18.528 2.328 17.328V11.16H0.552V8.4H1.44C1.92 8.4 2.248 8.288 2.424 8.064C2.6 7.824 2.688 7.488 2.688 7.056V4.992H5.88V8.4H8.376V11.16H5.88V18.24H8.184V21H6.072ZM11.5635 21V8.4H15.1155V11.136H15.2355C15.2995 10.784 15.4115 10.448 15.5715 10.128C15.7315 9.792 15.9395 9.496 16.1955 9.24C16.4675 8.984 16.7875 8.784 17.1555 8.64C17.5235 8.48 17.9555 8.4 18.4515 8.4H19.0755V11.712H18.1875C17.1475 11.712 16.3715 11.848 15.8595 12.12C15.3635 12.392 15.1155 12.896 15.1155 13.632V21H11.5635ZM29.4266 18.888H29.3066C29.1946 19.208 29.0426 19.512 28.8506 19.8C28.6746 20.088 28.4426 20.344 28.1546 20.568C27.8666 20.792 27.5226 20.968 27.1226 21.096C26.7386 21.224 26.2906 21.288 25.7786 21.288C24.4826 21.288 23.4986 20.864 22.8266 20.016C22.1706 19.152 21.8426 17.92 21.8426 16.32V8.4H25.3946V16.008C25.3946 16.776 25.5306 17.368 25.8026 17.784C26.0746 18.2 26.5386 18.408 27.1946 18.408C27.4666 18.408 27.7386 18.368 28.0106 18.288C28.2826 18.208 28.5226 18.096 28.7306 17.952C28.9386 17.792 29.1066 17.6 29.2346 17.376C29.3626 17.152 29.4266 16.888 29.4266 16.584V8.4H32.9786V21H29.4266V18.888ZM42.2595 21.288C41.2995 21.288 40.4435 21.136 39.6915 20.832C38.9395 20.512 38.2995 20.072 37.7715 19.512C37.2595 18.936 36.8675 18.24 36.5955 17.424C36.3395 16.608 36.2115 15.696 36.2115 14.688C36.2115 13.696 36.3395 12.8 36.5955 12C36.8515 11.184 37.2275 10.488 37.7235 9.912C38.2355 9.336 38.8595 8.896 39.5955 8.592C40.3315 8.272 41.1715 8.112 42.1155 8.112C43.1555 8.112 44.0435 8.288 44.7795 8.64C45.5315 8.992 46.1395 9.464 46.6035 10.056C47.0835 10.648 47.4275 11.336 47.6355 12.12C47.8595 12.888 47.9715 13.696 47.9715 14.544V15.6H39.8835V15.792C39.8835 16.624 40.1075 17.288 40.5555 17.784C41.0035 18.264 41.7075 18.504 42.6675 18.504C43.4035 18.504 44.0035 18.36 44.4675 18.072C44.9315 17.768 45.3635 17.408 45.7635 16.992L47.5395 19.2C46.9795 19.856 46.2435 20.368 45.3315 20.736C44.4355 21.104 43.4115 21.288 42.2595 21.288ZM42.1875 10.728C41.4675 10.728 40.8995 10.968 40.4835 11.448C40.0835 11.912 39.8835 12.536 39.8835 13.32V13.512H44.2995V13.296C44.2995 12.528 44.1235 11.912 43.7715 11.448C43.4355 10.968 42.9075 10.728 42.1875 10.728Z" fill="white"/>
<path d="M55.288 10.872C56.184 10.872 56.832 10.704 57.232 10.368C57.648 10.016 57.856 9.584 57.856 9.072V8.904C57.856 8.296 57.656 7.808 57.256 7.44C56.872 7.072 56.32 6.888 55.6 6.888C54.928 6.888 54.296 7.064 53.704 7.416C53.112 7.752 52.608 8.24 52.192 8.88L49.936 6.768C50.256 6.352 50.6 5.976 50.968 5.64C51.336 5.288 51.752 4.992 52.216 4.752C52.68 4.496 53.2 4.304 53.776 4.176C54.352 4.032 55 3.96 55.72 3.96C56.616 3.96 57.424 4.064 58.144 4.272C58.88 4.48 59.504 4.784 60.016 5.184C60.544 5.568 60.944 6.032 61.216 6.576C61.504 7.12 61.648 7.728 61.648 8.4C61.648 8.928 61.56 9.408 61.384 9.84C61.224 10.272 60.992 10.648 60.688 10.968C60.4 11.288 60.064 11.552 59.68 11.76C59.296 11.952 58.888 12.088 58.456 12.168V12.312C58.952 12.408 59.408 12.568 59.824 12.792C60.256 13 60.624 13.272 60.928 13.608C61.248 13.944 61.496 14.344 61.672 14.808C61.848 15.256 61.936 15.768 61.936 16.344C61.936 17.096 61.784 17.776 61.48 18.384C61.176 18.992 60.744 19.512 60.184 19.944C59.624 20.376 58.952 20.712 58.168 20.952C57.384 21.176 56.52 21.288 55.576 21.288C54.728 21.288 53.976 21.2 53.32 21.024C52.664 20.848 52.088 20.616 51.592 20.328C51.112 20.024 50.688 19.68 50.32 19.296C49.968 18.912 49.656 18.504 49.384 18.072L52.048 16.008C52.416 16.696 52.864 17.264 53.392 17.712C53.936 18.144 54.664 18.36 55.576 18.36C56.392 18.36 57.024 18.16 57.472 17.76C57.936 17.344 58.168 16.784 58.168 16.08V15.936C58.168 15.248 57.904 14.736 57.376 14.4C56.864 14.048 56.152 13.872 55.24 13.872H53.728V10.872H55.288ZM71.1666 21.288C70.1746 21.288 69.2866 21.136 68.5026 20.832C67.7186 20.512 67.0546 20.064 66.5106 19.488C65.9826 18.896 65.5746 18.192 65.2866 17.376C65.0146 16.56 64.8786 15.648 64.8786 14.64C64.8786 13.472 65.0546 12.368 65.4066 11.328C65.7746 10.272 66.2386 9.304 66.7986 8.424C67.3746 7.528 68.0146 6.728 68.7186 6.024C69.4386 5.32 70.1586 4.728 70.8786 4.248H75.8466C74.8226 4.984 73.9026 5.688 73.0866 6.36C72.2706 7.016 71.5586 7.68 70.9506 8.352C70.3586 9.024 69.8626 9.712 69.4626 10.416C69.0786 11.104 68.8066 11.848 68.6466 12.648L68.8626 12.72C69.0066 12.4 69.1746 12.088 69.3666 11.784C69.5746 11.48 69.8226 11.216 70.1106 10.992C70.4146 10.752 70.7666 10.56 71.1666 10.416C71.5666 10.272 72.0306 10.2 72.5586 10.2C73.2466 10.2 73.8866 10.328 74.4786 10.584C75.0866 10.824 75.6066 11.168 76.0386 11.616C76.4866 12.064 76.8306 12.616 77.0706 13.272C77.3266 13.912 77.4546 14.624 77.4546 15.408C77.4546 16.272 77.3026 17.064 76.9986 17.784C76.7106 18.504 76.2866 19.128 75.7266 19.656C75.1826 20.168 74.5266 20.568 73.7586 20.856C72.9906 21.144 72.1266 21.288 71.1666 21.288ZM71.1666 18.48C71.9666 18.48 72.5906 18.264 73.0386 17.832C73.4866 17.384 73.7106 16.752 73.7106 15.936V15.504C73.7106 14.688 73.4866 14.064 73.0386 13.632C72.5906 13.184 71.9666 12.96 71.1666 12.96C70.3666 12.96 69.7426 13.184 69.2946 13.632C68.8466 14.064 68.6226 14.688 68.6226 15.504V15.936C68.6226 16.752 68.8466 17.384 69.2946 17.832C69.7426 18.264 70.3666 18.48 71.1666 18.48ZM85.9412 21.288C83.7492 21.288 82.1252 20.528 81.0692 19.008C80.0132 17.488 79.4852 15.36 79.4852 12.624C79.4852 9.888 80.0132 7.76 81.0692 6.24C82.1252 4.72 83.7492 3.96 85.9412 3.96C88.1332 3.96 89.7572 4.72 90.8132 6.24C91.8692 7.76 92.3972 9.888 92.3972 12.624C92.3972 15.36 91.8692 17.488 90.8132 19.008C89.7572 20.528 88.1332 21.288 85.9412 21.288ZM85.9412 18.24C86.9012 18.24 87.5652 17.888 87.9332 17.184C88.3012 16.48 88.4852 15.488 88.4852 14.208V11.04C88.4852 9.76 88.3012 8.768 87.9332 8.064C87.5652 7.36 86.9012 7.008 85.9412 7.008C84.9812 7.008 84.3172 7.36 83.9492 8.064C83.5812 8.768 83.3972 9.76 83.3972 11.04V14.208C83.3972 15.488 83.5812 16.48 83.9492 17.184C84.3172 17.888 84.9812 18.24 85.9412 18.24Z" fill="#FFA534"/>
</g>
<defs>
<clipPath id="clip0">
<rect width="95" height="27" fill="white"/>
</clipPath>
</defs>
</svg>
