<svg width="72" height="22" viewBox="0 0 72 22" fill="none" xmlns="http://www.w3.org/2000/svg">
<path d="M4.554 18C3.63 18 2.928 17.766 2.448 17.298C1.98 16.83 1.746 16.146 1.746 15.246V10.62H0.414V8.55H1.08C1.44 8.55 1.686 8.466 1.818 8.298C1.95 8.118 2.016 7.866 2.016 7.542V5.994H4.41V8.55H6.282V10.62H4.41V15.93H6.138V18H4.554ZM8.67263 18V8.55H11.3366V10.602H11.4266C11.4746 10.338 11.5586 10.086 11.6786 9.846C11.7986 9.594 11.9546 9.372 12.1466 9.18C12.3506 8.988 12.5906 8.838 12.8666 8.73C13.1426 8.61 13.4666 8.55 13.8386 8.55H14.3066V11.034H13.6406C12.8606 11.034 12.2786 11.136 11.8946 11.34C11.5226 11.544 11.3366 11.922 11.3366 12.474V18H8.67263ZM22.07 16.416H21.98C21.896 16.656 21.782 16.884 21.638 17.1C21.506 17.316 21.332 17.508 21.116 17.676C20.9 17.844 20.642 17.976 20.342 18.072C20.054 18.168 19.718 18.216 19.334 18.216C18.362 18.216 17.624 17.898 17.12 17.262C16.628 16.614 16.382 15.69 16.382 14.49V8.55H19.046V14.256C19.046 14.832 19.148 15.276 19.352 15.588C19.556 15.9 19.904 16.056 20.396 16.056C20.6 16.056 20.804 16.026 21.008 15.966C21.212 15.906 21.392 15.822 21.548 15.714C21.704 15.594 21.83 15.45 21.926 15.282C22.022 15.114 22.07 14.916 22.07 14.688V8.55H24.734V18H22.07V16.416ZM31.6946 18.216C30.9746 18.216 30.3326 18.102 29.7686 17.874C29.2046 17.634 28.7246 17.304 28.3286 16.884C27.9446 16.452 27.6506 15.93 27.4466 15.318C27.2546 14.706 27.1586 14.022 27.1586 13.266C27.1586 12.522 27.2546 11.85 27.4466 11.25C27.6386 10.638 27.9206 10.116 28.2926 9.684C28.6766 9.252 29.1446 8.922 29.6966 8.694C30.2486 8.454 30.8786 8.334 31.5866 8.334C32.3666 8.334 33.0326 8.466 33.5846 8.73C34.1486 8.994 34.6046 9.348 34.9526 9.792C35.3126 10.236 35.5706 10.752 35.7266 11.34C35.8946 11.916 35.9786 12.522 35.9786 13.158V13.95H29.9126V14.094C29.9126 14.718 30.0806 15.216 30.4166 15.588C30.7526 15.948 31.2806 16.128 32.0006 16.128C32.5526 16.128 33.0026 16.02 33.3506 15.804C33.6986 15.576 34.0226 15.306 34.3226 14.994L35.6546 16.65C35.2346 17.142 34.6826 17.526 33.9986 17.802C33.3266 18.078 32.5586 18.216 31.6946 18.216ZM31.6406 10.296C31.1006 10.296 30.6746 10.476 30.3626 10.836C30.0626 11.184 29.9126 11.652 29.9126 12.24V12.384H33.2246V12.222C33.2246 11.646 33.0926 11.184 32.8286 10.836C32.5766 10.476 32.1806 10.296 31.6406 10.296Z" fill="white"/>
<path d="M42.716 10.404C43.388 10.404 43.874 10.278 44.174 10.026C44.486 9.762 44.642 9.438 44.642 9.054V8.928C44.642 8.472 44.492 8.106 44.192 7.83C43.904 7.554 43.49 7.416 42.95 7.416C42.446 7.416 41.972 7.548 41.528 7.812C41.084 8.064 40.706 8.43 40.394 8.91L38.702 7.326C38.942 7.014 39.2 6.732 39.476 6.48C39.752 6.216 40.064 5.994 40.412 5.814C40.76 5.622 41.15 5.478 41.582 5.382C42.014 5.274 42.5 5.22 43.04 5.22C43.712 5.22 44.318 5.298 44.858 5.454C45.41 5.61 45.878 5.838 46.262 6.138C46.658 6.426 46.958 6.774 47.162 7.182C47.378 7.59 47.486 8.046 47.486 8.55C47.486 8.946 47.42 9.306 47.288 9.63C47.168 9.954 46.994 10.236 46.766 10.476C46.55 10.716 46.298 10.914 46.01 11.07C45.722 11.214 45.416 11.316 45.092 11.376V11.484C45.464 11.556 45.806 11.676 46.118 11.844C46.442 12 46.718 12.204 46.946 12.456C47.186 12.708 47.372 13.008 47.504 13.356C47.636 13.692 47.702 14.076 47.702 14.508C47.702 15.072 47.588 15.582 47.36 16.038C47.132 16.494 46.808 16.884 46.388 17.208C45.968 17.532 45.464 17.784 44.876 17.964C44.288 18.132 43.64 18.216 42.932 18.216C42.296 18.216 41.732 18.15 41.24 18.018C40.748 17.886 40.316 17.712 39.944 17.496C39.584 17.268 39.266 17.01 38.99 16.722C38.726 16.434 38.492 16.128 38.288 15.804L40.286 14.256C40.562 14.772 40.898 15.198 41.294 15.534C41.702 15.858 42.248 16.02 42.932 16.02C43.544 16.02 44.018 15.87 44.354 15.57C44.702 15.258 44.876 14.838 44.876 14.31V14.202C44.876 13.686 44.678 13.302 44.282 13.05C43.898 12.786 43.364 12.654 42.68 12.654H41.546V10.404H42.716ZM54.625 18.216C53.881 18.216 53.215 18.102 52.627 17.874C52.039 17.634 51.541 17.298 51.133 16.866C50.737 16.422 50.431 15.894 50.215 15.282C50.011 14.67 49.909 13.986 49.909 13.23C49.909 12.354 50.041 11.526 50.305 10.746C50.581 9.954 50.929 9.228 51.349 8.568C51.781 7.896 52.261 7.296 52.789 6.768C53.329 6.24 53.869 5.796 54.409 5.436H58.135C57.367 5.988 56.677 6.516 56.065 7.02C55.453 7.512 54.919 8.01 54.463 8.514C54.019 9.018 53.647 9.534 53.347 10.062C53.059 10.578 52.855 11.136 52.735 11.736L52.897 11.79C53.005 11.55 53.131 11.316 53.275 11.088C53.431 10.86 53.617 10.662 53.833 10.494C54.061 10.314 54.325 10.17 54.625 10.062C54.925 9.954 55.273 9.9 55.669 9.9C56.185 9.9 56.665 9.996 57.109 10.188C57.565 10.368 57.955 10.626 58.279 10.962C58.615 11.298 58.873 11.712 59.053 12.204C59.245 12.684 59.341 13.218 59.341 13.806C59.341 14.454 59.227 15.048 58.999 15.588C58.783 16.128 58.465 16.596 58.045 16.992C57.637 17.376 57.145 17.676 56.569 17.892C55.993 18.108 55.345 18.216 54.625 18.216ZM54.625 16.11C55.225 16.11 55.693 15.948 56.029 15.624C56.365 15.288 56.533 14.814 56.533 14.202V13.878C56.533 13.266 56.365 12.798 56.029 12.474C55.693 12.138 55.225 11.97 54.625 11.97C54.025 11.97 53.557 12.138 53.221 12.474C52.885 12.798 52.717 13.266 52.717 13.878V14.202C52.717 14.814 52.885 15.288 53.221 15.624C53.557 15.948 54.025 16.11 54.625 16.11ZM65.7059 18.216C64.0619 18.216 62.8439 17.646 62.0519 16.506C61.2599 15.366 60.8639 13.77 60.8639 11.718C60.8639 9.666 61.2599 8.07 62.0519 6.93C62.8439 5.79 64.0619 5.22 65.7059 5.22C67.3499 5.22 68.5679 5.79 69.3599 6.93C70.1519 8.07 70.5479 9.666 70.5479 11.718C70.5479 13.77 70.1519 15.366 69.3599 16.506C68.5679 17.646 67.3499 18.216 65.7059 18.216ZM65.7059 15.93C66.4259 15.93 66.9239 15.666 67.1999 15.138C67.4759 14.61 67.6139 13.866 67.6139 12.906V10.53C67.6139 9.57 67.4759 8.826 67.1999 8.298C66.9239 7.77 66.4259 7.506 65.7059 7.506C64.9859 7.506 64.4879 7.77 64.2119 8.298C63.9359 8.826 63.7979 9.57 63.7979 10.53V12.906C63.7979 13.866 63.9359 14.61 64.2119 15.138C64.4879 15.666 64.9859 15.93 65.7059 15.93Z" fill="#FFA534"/>
</svg>
