<svg width="237" height="47" viewBox="0 0 237 47" fill="none" xmlns="http://www.w3.org/2000/svg">
<path d="M15.192 46C11.9067 46 9.41067 45.168 7.704 43.504C6.04 41.84 5.208 39.408 5.208 36.208V19.76H0.472V12.4H2.84C4.12 12.4 4.99467 12.1013 5.464 11.504C5.93333 10.864 6.168 9.968 6.168 8.816V3.312H14.68V12.4H21.336V19.76H14.68V38.64H20.824V46H15.192ZM27.916 46V12.4H37.388V19.696H37.708C37.8787 18.7573 38.1773 17.8613 38.604 17.008C39.0307 16.112 39.5853 15.3227 40.268 14.64C40.9933 13.9573 41.8467 13.424 42.828 13.04C43.8093 12.6133 44.9613 12.4 46.284 12.4H47.948V21.232H45.58C42.8067 21.232 40.7373 21.5947 39.372 22.32C38.0493 23.0453 37.388 24.3893 37.388 26.352V46H27.916ZM73.631 40.368H73.311C73.0123 41.2213 72.607 42.032 72.095 42.8C71.6257 43.568 71.007 44.2507 70.239 44.848C69.471 45.4453 68.5537 45.9147 67.487 46.256C66.463 46.5973 65.2683 46.768 63.903 46.768C60.447 46.768 57.823 45.6373 56.031 43.376C54.2817 41.072 53.407 37.7867 53.407 33.52V12.4H62.879V32.688C62.879 34.736 63.2417 36.3147 63.967 37.424C64.6923 38.5333 65.9297 39.088 67.679 39.088C68.4043 39.088 69.1297 38.9813 69.855 38.768C70.5803 38.5547 71.2203 38.256 71.775 37.872C72.3297 37.4453 72.7777 36.9333 73.119 36.336C73.4603 35.7387 73.631 35.0347 73.631 34.224V12.4H83.103V46H73.631V40.368ZM105.932 46.768C103.372 46.768 101.089 46.3627 99.084 45.552C97.0787 44.6987 95.372 43.5253 93.964 42.032C92.5987 40.496 91.5533 38.64 90.828 36.464C90.1453 34.288 89.804 31.856 89.804 29.168C89.804 26.5227 90.1453 24.1333 90.828 22C91.5107 19.824 92.5133 17.968 93.836 16.432C95.2013 14.896 96.8653 13.7227 98.828 12.912C100.791 12.0587 103.031 11.632 105.548 11.632C108.321 11.632 110.689 12.1013 112.652 13.04C114.657 13.9787 116.279 15.2373 117.516 16.816C118.796 18.3947 119.713 20.2293 120.268 22.32C120.865 24.368 121.164 26.5227 121.164 28.784V31.6H99.596V32.112C99.596 34.3307 100.193 36.1013 101.388 37.424C102.583 38.704 104.46 39.344 107.02 39.344C108.983 39.344 110.583 38.96 111.82 38.192C113.057 37.3813 114.209 36.4213 115.276 35.312L120.012 41.2C118.519 42.9493 116.556 44.3147 114.124 45.296C111.735 46.2773 109.004 46.768 105.932 46.768ZM105.74 18.608C103.82 18.608 102.305 19.248 101.196 20.528C100.129 21.7653 99.596 23.4293 99.596 25.52V26.032H111.372V25.456C111.372 23.408 110.903 21.7653 109.964 20.528C109.068 19.248 107.66 18.608 105.74 18.608Z" fill="#14475A"/>
<path d="M140.206 18.992C142.595 18.992 144.323 18.544 145.39 17.648C146.499 16.7093 147.054 15.5573 147.054 14.192V13.744C147.054 12.1227 146.52 10.8213 145.454 9.84C144.43 8.85867 142.958 8.368 141.038 8.368C139.246 8.368 137.56 8.83733 135.982 9.776C134.403 10.672 133.059 11.9733 131.95 13.68L125.934 8.048C126.787 6.93866 127.704 5.936 128.686 5.04C129.667 4.10133 130.776 3.312 132.014 2.672C133.251 1.98933 134.638 1.47733 136.174 1.136C137.71 0.751998 139.438 0.559998 141.358 0.559998C143.747 0.559998 145.902 0.837331 147.822 1.392C149.784 1.94667 151.448 2.75733 152.814 3.824C154.222 4.848 155.288 6.08533 156.014 7.536C156.782 8.98667 157.166 10.608 157.166 12.4C157.166 13.808 156.931 15.088 156.462 16.24C156.035 17.392 155.416 18.3947 154.606 19.248C153.838 20.1013 152.942 20.8053 151.918 21.36C150.894 21.872 149.806 22.2347 148.654 22.448V22.832C149.976 23.088 151.192 23.5147 152.302 24.112C153.454 24.6667 154.435 25.392 155.246 26.288C156.099 27.184 156.76 28.2507 157.229 29.488C157.699 30.6827 157.934 32.048 157.934 33.584C157.934 35.5893 157.528 37.4027 156.718 39.024C155.907 40.6453 154.755 42.032 153.262 43.184C151.768 44.336 149.976 45.232 147.886 45.872C145.795 46.4693 143.491 46.768 140.974 46.768C138.712 46.768 136.707 46.5333 134.958 46.064C133.208 45.5947 131.672 44.976 130.35 44.208C129.07 43.3973 127.939 42.48 126.958 41.456C126.019 40.432 125.187 39.344 124.462 38.192L131.566 32.688C132.547 34.5227 133.742 36.0373 135.15 37.232C136.6 38.384 138.542 38.96 140.974 38.96C143.15 38.96 144.835 38.4267 146.03 37.36C147.267 36.2507 147.886 34.7573 147.886 32.88V32.496C147.886 30.6613 147.182 29.296 145.774 28.4C144.408 27.4613 142.51 26.992 140.078 26.992H136.046V18.992H140.206ZM181.269 46.768C178.623 46.768 176.255 46.3627 174.165 45.552C172.074 44.6987 170.303 43.504 168.853 41.968C167.445 40.3893 166.357 38.512 165.589 36.336C164.863 34.16 164.501 31.728 164.501 29.04C164.501 25.9253 164.97 22.9813 165.909 20.208C166.89 17.392 168.127 14.8107 169.621 12.464C171.157 10.0747 172.863 7.94133 174.741 6.064C176.661 4.18666 178.581 2.608 180.501 1.328H193.749C191.018 3.29067 188.565 5.168 186.389 6.96C184.213 8.70933 182.314 10.48 180.693 12.272C179.114 14.064 177.791 15.8987 176.725 17.776C175.701 19.6107 174.975 21.5947 174.549 23.728L175.125 23.92C175.509 23.0667 175.957 22.2347 176.469 21.424C177.023 20.6133 177.685 19.9093 178.453 19.312C179.263 18.672 180.202 18.16 181.269 17.776C182.335 17.392 183.573 17.2 184.981 17.2C186.815 17.2 188.522 17.5413 190.101 18.224C191.722 18.864 193.109 19.7813 194.261 20.976C195.455 22.1707 196.373 23.6427 197.013 25.392C197.695 27.0987 198.037 28.9973 198.037 31.088C198.037 33.392 197.631 35.504 196.821 37.424C196.053 39.344 194.922 41.008 193.429 42.416C191.978 43.7813 190.229 44.848 188.181 45.616C186.133 46.384 183.829 46.768 181.269 46.768ZM181.269 39.28C183.402 39.28 185.066 38.704 186.261 37.552C187.455 36.3573 188.053 34.672 188.053 32.496V31.344C188.053 29.168 187.455 27.504 186.261 26.352C185.066 25.1573 183.402 24.56 181.269 24.56C179.135 24.56 177.471 25.1573 176.277 26.352C175.082 27.504 174.485 29.168 174.485 31.344V32.496C174.485 34.672 175.082 36.3573 176.277 37.552C177.471 38.704 179.135 39.28 181.269 39.28ZM219.388 46.768C213.542 46.768 209.212 44.7413 206.396 40.688C203.58 36.6347 202.172 30.96 202.172 23.664C202.172 16.368 203.58 10.6933 206.396 6.64C209.212 2.58666 213.542 0.559998 219.388 0.559998C225.233 0.559998 229.564 2.58666 232.38 6.64C235.196 10.6933 236.604 16.368 236.604 23.664C236.604 30.96 235.196 36.6347 232.38 40.688C229.564 44.7413 225.233 46.768 219.388 46.768ZM219.388 38.64C221.948 38.64 223.718 37.7013 224.7 35.824C225.681 33.9467 226.172 31.3013 226.172 27.888V19.44C226.172 16.0267 225.681 13.3813 224.7 11.504C223.718 9.62667 221.948 8.688 219.388 8.688C216.828 8.688 215.057 9.62667 214.076 11.504C213.094 13.3813 212.604 16.0267 212.604 19.44V27.888C212.604 31.3013 213.094 33.9467 214.076 35.824C215.057 37.7013 216.828 38.64 219.388 38.64Z" fill="#F9A21A"/>
</svg>
