<svg width="128" height="90" viewBox="0 0 128 90" fill="none" xmlns="http://www.w3.org/2000/svg">
<path d="M103.2 34.2133C101.409 25.1345 96.5206 16.9592 89.371 11.084C82.2215 5.20871 73.2539 1.99791 64 2C48.5867 2 35.2 10.7467 28.5333 23.5467C20.6946 24.3938 13.4454 28.1078 8.17861 33.975C2.91185 39.8423 -0.000915743 47.4489 2.15961e-07 55.3333C2.15961e-07 72.9867 14.3467 87.3333 32 87.3333H101.333C116.053 87.3333 128 75.3867 128 60.6667C128 46.5867 117.067 35.1733 103.2 34.2133ZM74.6667 50V71.3333H53.3333V50H37.3333L64 23.3333L90.6667 50H74.6667Z" fill="#2D9CDB"/>
</svg>
